<?xml version="1.0" standalone="no"?>
<!DOCTYPE svg PUBLIC "-//W3C//DTD SVG 20010904//EN"
 "http://www.w3.org/TR/2001/REC-SVG-20010904/DTD/svg10.dtd">
<svg version="1.0" xmlns="http://www.w3.org/2000/svg"
 width="846.000000pt" height="498.000000pt" viewBox="0 0 846.000000 498.000000"
 preserveAspectRatio="xMidYMid meet">

<g transform="translate(0.000000,498.000000) scale(0.100000,-0.100000)"
fill="#000000" stroke="none">
<path d="M2110 3954 l-325 -102 165 -52 c91 -28 235 -74 321 -101 85 -27 158
-49 162 -49 4 0 7 27 7 60 l0 60 80 0 79 0 3 -197 c2 -109 2 -215 0 -235 l-3
-38 -820 0 -819 0 0 -85 0 -85 820 0 820 0 0 -32 c0 -18 0 -282 0 -585 l0
-553 115 0 115 0 0 585 0 585 93 0 c288 0 538 79 672 213 101 101 119 197 57
310 -45 84 -148 160 -285 211 -156 59 -303 76 -669 76 l-257 0 -3 58 -3 59
-325 -103z m1024 -210 c238 -64 315 -229 162 -345 -79 -60 -187 -91 -338 -97
l-128 -5 0 230 c0 126 3 233 8 238 11 12 231 -3 296 -21z"/>
<path d="M1237 3035 c-78 -21 -138 -73 -184 -160 -24 -45 -27 -61 -28 -150 0
-90 3 -105 27 -151 36 -69 94 -117 187 -154 161 -66 199 -87 215 -119 34 -65
11 -134 -54 -161 -45 -19 -125 -8 -156 21 -29 26 -64 90 -64 114 0 8 -3 15 -7
15 -26 -1 -188 -59 -191 -68 -7 -21 54 -137 94 -182 49 -54 116 -88 199 -99
135 -19 259 21 339 110 58 64 81 131 81 234 0 145 -59 226 -215 297 -47 22
-111 51 -144 66 -70 32 -96 62 -96 112 0 74 78 118 155 86 42 -18 59 -35 81
-83 8 -18 18 -33 22 -33 4 0 45 15 92 33 93 37 94 38 62 107 -39 85 -99 137
-192 164 -64 19 -156 19 -223 1z"/>
<path d="M2037 3023 c-3 -5 -71 -240 -151 -523 -81 -283 -149 -523 -152 -532
-5 -16 4 -18 98 -18 l104 0 25 111 c13 60 28 110 32 110 4 -1 70 -1 146 -1
l139 0 17 -72 c9 -40 20 -90 26 -110 l10 -38 115 0 c89 0 115 3 111 13 -2 6
-69 249 -148 540 l-143 527 -112 0 c-62 0 -115 -3 -117 -7z m143 -428 c21 -88
42 -177 45 -197 l7 -38 -101 0 c-100 0 -101 0 -96 23 3 12 23 103 45 202 45
202 51 220 58 190 2 -11 21 -92 42 -180z"/>
<path d="M3265 3018 c-3 -7 -70 -242 -150 -523 -80 -280 -148 -518 -151 -527
-5 -16 4 -18 99 -18 l104 0 23 110 23 110 147 0 147 0 23 -102 c12 -57 26
-107 30 -111 3 -4 56 -6 117 -5 l109 3 -145 535 -146 535 -113 3 c-84 2 -114
-1 -117 -10z m148 -445 c26 -115 47 -210 47 -213 0 -3 -44 -4 -97 -3 -87 2
-98 4 -96 20 4 42 87 403 92 403 4 0 28 -93 54 -207z"/>
<path d="M3875 3019 c-3 -8 -4 -250 -3 -539 l3 -525 113 -3 112 -3 0 216 0
216 57 -3 58 -3 68 -212 69 -213 119 0 c65 0 119 3 119 8 0 4 -40 108 -89 231
l-89 224 48 48 c71 71 93 137 88 259 -5 107 -24 162 -79 225 -63 72 -93 79
-356 83 -189 3 -234 2 -238 -9z m402 -185 c52 -33 72 -140 40 -217 -21 -48
-64 -67 -152 -67 l-65 0 0 149 c0 147 0 150 23 153 42 6 132 -4 154 -18z"/>
<path d="M4720 2490 l0 -540 110 0 110 0 0 540 0 540 -110 0 -110 0 0 -540z"/>
<path d="M1831 1729 c-293 -4 -538 -10 -543 -11 -5 -2 241 -25 549 -52 307
-26 577 -50 601 -53 l42 -6 0 -53 c0 -48 -3 -54 -22 -58 -13 -3 -189 -15 -393
-26 -203 -12 -372 -24 -374 -26 -2 -2 22 -4 55 -5 32 0 210 -10 394 -22 l335
-22 5 -104 c3 -56 3 -107 0 -111 -3 -5 -181 -20 -395 -35 -215 -14 -394 -27
-399 -28 -4 -2 149 -15 340 -30 192 -16 373 -31 402 -34 l52 -6 0 -123 0 -123
-42 -5 c-24 -3 -277 -15 -563 -26 -286 -12 -524 -22 -529 -24 -5 -1 71 -8 170
-15 98 -6 366 -25 594 -42 601 -42 778 -39 883 19 81 44 142 132 184 268 26
86 26 382 0 469 -50 161 -134 246 -277 279 -73 18 -177 18 -1069 5z m1031
-196 c78 -45 119 -217 99 -413 -21 -199 -63 -260 -188 -270 l-63 -5 0 359 0
359 60 -6 c33 -3 75 -14 92 -24z"/>
<path d="M3357 1733 c-4 -3 -7 -246 -7 -540 l0 -533 315 0 315 0 0 95 0 95
-200 0 -200 0 0 135 0 135 155 0 156 0 -3 93 -3 92 -152 0 -153 0 0 128 0 127
200 0 200 0 0 90 0 90 -308 0 c-170 0 -312 -3 -315 -7z"/>
<path d="M4090 1200 l0 -540 280 0 280 0 0 100 0 100 -165 0 -165 0 -1 428
c-1 235 -1 433 0 440 1 9 -27 12 -114 12 l-115 0 0 -540z"/>
<path d="M4750 1200 l0 -540 110 0 110 0 0 540 0 540 -110 0 -110 0 0 -540z"/>
<path d="M5054 1723 c5 -17 67 -285 151 -658 45 -201 74 -322 86 -367 l10 -38
124 0 124 0 10 38 c6 20 55 231 110 467 55 237 107 459 115 495 9 36 16 68 16
73 0 4 -43 7 -95 7 -90 0 -95 -1 -100 -22 -3 -13 -39 -194 -80 -402 -41 -209
-77 -381 -79 -383 -3 -4 -18 68 -86 427 -22 118 -48 252 -57 298 l-16 82 -119
0 c-109 0 -119 -2 -114 -17z"/>
<path d="M5880 1200 l0 -540 310 0 310 0 0 95 0 95 -196 2 -195 3 -2 133 -2
132 158 0 158 0 -3 93 -3 92 -154 2 -155 2 1 25 c1 14 1 71 2 126 l1 100 195
0 195 0 0 90 0 90 -310 0 -310 0 0 -540z"/>
<path d="M6620 1201 l0 -541 110 0 110 0 0 215 0 215 58 0 58 0 69 -215 68
-215 124 0 c68 0 122 3 120 8 -3 4 -46 110 -96 236 l-90 229 25 20 c49 38 74
72 95 127 18 46 20 71 17 155 -5 116 -26 172 -82 229 -70 70 -74 71 -343 74
l-243 4 0 -541z m385 355 c50 -21 68 -63 63 -152 -3 -60 -8 -77 -27 -98 -29
-31 -77 -46 -148 -46 l-53 0 0 155 0 155 65 0 c36 0 81 -6 100 -14z"/>
<path d="M7320 1736 c0 -2 14 -37 31 -77 18 -41 76 -182 130 -313 l99 -240 0
-223 0 -223 110 0 110 0 0 229 0 228 44 94 c124 268 236 516 236 522 0 4 -48
7 -107 7 l-108 0 -74 -190 c-41 -105 -77 -190 -80 -190 -4 0 -15 24 -25 53
-10 28 -41 114 -69 190 l-50 137 -124 0 c-67 0 -123 -2 -123 -4z"/>
</g>
</svg>
